<mxfile host="app.diagrams.net" modified="2024-03-12T11:14:29.511Z" agent="Mozilla/5.0 (X11; Ubuntu; Linux x86_64; rv:123.0) Gecko/20100101 Firefox/123.0" etag="xB-ADRD5ZesnFxpOqqeK" version="24.0.4" type="device">
  <diagram id="6a731a19-8d31-9384-78a2-239565b7b9f0" name="Page-1">
    <mxGraphModel dx="1434" dy="766" grid="1" gridSize="10" guides="1" tooltips="1" connect="1" arrows="1" fold="1" page="1" pageScale="1" pageWidth="1169" pageHeight="827" background="none" math="0" shadow="0">
      <root>
        <mxCell id="0" />
        <mxCell id="1" parent="0" />
        <mxCell id="zFeIf6rGxBRQyr9y4doY-1755" value="" style="rounded=1;whiteSpace=wrap;html=1;shadow=0;labelBackgroundColor=none;strokeWidth=1;fontFamily=Helvetica;fontSize=14;align=center;spacing=5;fontStyle=0;arcSize=7;perimeterSpacing=2;fillColor=#DDDDDD;strokeColor=#000000;" vertex="1" parent="1">
          <mxGeometry x="230" y="110" width="790" height="320" as="geometry" />
        </mxCell>
        <mxCell id="mvShpbLLlnh3-daPlj1M-1804" value="" style="rounded=1;whiteSpace=wrap;html=1;shadow=0;labelBackgroundColor=none;strokeWidth=0;fontFamily=Helvetica;fontSize=14;align=center;spacing=5;fontStyle=0;arcSize=7;perimeterSpacing=2;fillColor=#CCCCCC;strokeColor=#000000;" parent="1" vertex="1">
          <mxGeometry x="400" y="230" width="300" height="150" as="geometry" />
        </mxCell>
        <mxCell id="1755" value="The Unfair Contract Terms Directive" style="rounded=1;whiteSpace=wrap;html=1;shadow=0;labelBackgroundColor=none;strokeWidth=0;fontFamily=Helvetica;fontSize=14;align=center;spacing=5;fontStyle=0;arcSize=7;perimeterSpacing=2;" parent="1" vertex="1">
          <mxGeometry x="410" y="120" width="130" height="60" as="geometry" />
        </mxCell>
        <mxCell id="mvShpbLLlnh3-daPlj1M-1782" value="Unfair Commercial Practices Directive" style="rounded=1;whiteSpace=wrap;html=1;shadow=0;labelBackgroundColor=none;strokeWidth=0;fontFamily=Helvetica;fontSize=14;align=center;spacing=5;fontStyle=0;arcSize=7;perimeterSpacing=2;" parent="1" vertex="1">
          <mxGeometry x="710" y="120" width="130" height="60" as="geometry" />
        </mxCell>
        <mxCell id="mvShpbLLlnh3-daPlj1M-1784" value="1985" style="text;html=1;whiteSpace=wrap;overflow=hidden;rounded=0;fontStyle=1;fontSize=18;align=center;strokeWidth=0;" parent="1" vertex="1">
          <mxGeometry x="250" y="190" width="150" height="40" as="geometry" />
        </mxCell>
        <mxCell id="mvShpbLLlnh3-daPlj1M-1785" value="1993" style="text;html=1;whiteSpace=wrap;overflow=hidden;rounded=0;fontStyle=1;fontSize=18;align=center;strokeWidth=0;" parent="1" vertex="1">
          <mxGeometry x="400" y="190" width="150" height="40" as="geometry" />
        </mxCell>
        <mxCell id="mvShpbLLlnh3-daPlj1M-1786" value="1998" style="text;html=1;whiteSpace=wrap;overflow=hidden;rounded=0;fontStyle=1;fontSize=18;align=center;strokeWidth=0;" parent="1" vertex="1">
          <mxGeometry x="550" y="190" width="150" height="40" as="geometry" />
        </mxCell>
        <mxCell id="mvShpbLLlnh3-daPlj1M-1787" value="2011" style="text;html=1;whiteSpace=wrap;overflow=hidden;rounded=0;fontStyle=1;fontSize=18;align=center;strokeWidth=0;" parent="1" vertex="1">
          <mxGeometry x="860" y="310" width="130" height="40" as="geometry" />
        </mxCell>
        <mxCell id="mvShpbLLlnh3-daPlj1M-1788" value="Omnibus Directive" style="rounded=1;whiteSpace=wrap;html=1;shadow=0;labelBackgroundColor=none;strokeWidth=0;fontFamily=Helvetica;fontSize=14;align=center;spacing=5;fontStyle=0;arcSize=7;perimeterSpacing=2;" parent="1" vertex="1">
          <mxGeometry x="560" y="240" width="130" height="60" as="geometry" />
        </mxCell>
        <mxCell id="mvShpbLLlnh3-daPlj1M-1789" value="Directive on Representative Actions" style="rounded=1;whiteSpace=wrap;html=1;shadow=0;labelBackgroundColor=none;strokeWidth=0;fontFamily=Helvetica;fontSize=14;align=center;spacing=5;fontStyle=0;arcSize=7;perimeterSpacing=2;" parent="1" vertex="1">
          <mxGeometry x="410" y="240" width="130" height="60" as="geometry" />
        </mxCell>
        <mxCell id="mvShpbLLlnh3-daPlj1M-1790" value="Price Indication Directive" style="rounded=1;whiteSpace=wrap;html=1;shadow=0;labelBackgroundColor=none;strokeWidth=0;fontFamily=Helvetica;fontSize=14;align=center;spacing=5;fontStyle=0;arcSize=7;perimeterSpacing=2;" parent="1" vertex="1">
          <mxGeometry x="560" y="120" width="130" height="60" as="geometry" />
        </mxCell>
        <mxCell id="mvShpbLLlnh3-daPlj1M-1791" value="Consumer Rights Directive" style="rounded=1;whiteSpace=wrap;html=1;shadow=0;labelBackgroundColor=none;strokeWidth=0;fontFamily=Helvetica;fontSize=14;align=center;spacing=5;fontStyle=0;arcSize=7;perimeterSpacing=2;" parent="1" vertex="1">
          <mxGeometry x="860" y="240" width="130" height="60" as="geometry" />
        </mxCell>
        <mxCell id="mvShpbLLlnh3-daPlj1M-1794" value="" style="curved=0;endArrow=classic;html=1;rounded=1;verticalAlign=middle;endFill=1;strokeWidth=1;entryX=0;entryY=0;entryDx=0;entryDy=0;" parent="1" edge="1" target="mvShpbLLlnh3-daPlj1M-1807">
          <mxGeometry width="50" height="50" relative="1" as="geometry">
            <mxPoint x="250" y="190" as="sourcePoint" />
            <mxPoint x="240" y="310" as="targetPoint" />
            <Array as="points">
              <mxPoint x="1000" y="190" />
              <mxPoint x="1000" y="310" />
            </Array>
          </mxGeometry>
        </mxCell>
        <mxCell id="mvShpbLLlnh3-daPlj1M-1795" value="Product Liability Directive" style="rounded=1;whiteSpace=wrap;html=1;shadow=0;labelBackgroundColor=none;strokeWidth=0;fontFamily=Helvetica;fontSize=14;align=center;spacing=5;fontStyle=0;arcSize=7;perimeterSpacing=2;" parent="1" vertex="1">
          <mxGeometry x="260" y="120" width="130" height="60" as="geometry" />
        </mxCell>
        <mxCell id="mvShpbLLlnh3-daPlj1M-1796" value="2005" style="text;html=1;whiteSpace=wrap;overflow=hidden;rounded=0;fontStyle=1;fontSize=18;align=center;strokeWidth=0;" parent="1" vertex="1">
          <mxGeometry x="700" y="190" width="150" height="40" as="geometry" />
        </mxCell>
        <mxCell id="mvShpbLLlnh3-daPlj1M-1797" value="CPC Regulation" style="rounded=1;whiteSpace=wrap;html=1;shadow=0;labelBackgroundColor=none;strokeWidth=0;fontFamily=Helvetica;fontSize=14;align=center;spacing=5;fontStyle=0;arcSize=7;perimeterSpacing=2;" parent="1" vertex="1">
          <mxGeometry x="860" y="120" width="130" height="60" as="geometry" />
        </mxCell>
        <mxCell id="mvShpbLLlnh3-daPlj1M-1798" value="2006" style="text;html=1;whiteSpace=wrap;overflow=hidden;rounded=0;fontStyle=1;fontSize=18;align=center;strokeWidth=0;" parent="1" vertex="1">
          <mxGeometry x="850" y="190" width="150" height="40" as="geometry" />
        </mxCell>
        <mxCell id="mvShpbLLlnh3-daPlj1M-1799" value="CPC Regulation Update" style="rounded=1;whiteSpace=wrap;html=1;shadow=0;labelBackgroundColor=none;strokeWidth=0;fontFamily=Helvetica;fontSize=14;align=center;spacing=5;fontStyle=0;arcSize=7;perimeterSpacing=2;" parent="1" vertex="1">
          <mxGeometry x="710" y="240" width="130" height="60" as="geometry" />
        </mxCell>
        <mxCell id="mvShpbLLlnh3-daPlj1M-1800" value="2017" style="text;html=1;whiteSpace=wrap;overflow=hidden;rounded=0;fontStyle=1;fontSize=18;align=center;strokeWidth=0;" parent="1" vertex="1">
          <mxGeometry x="710" y="310" width="130" height="40" as="geometry" />
        </mxCell>
        <mxCell id="mvShpbLLlnh3-daPlj1M-1801" value="2019" style="text;html=1;whiteSpace=wrap;overflow=hidden;rounded=0;fontStyle=1;fontSize=18;align=center;strokeWidth=0;" parent="1" vertex="1">
          <mxGeometry x="560" y="310" width="130" height="40" as="geometry" />
        </mxCell>
        <mxCell id="mvShpbLLlnh3-daPlj1M-1802" value="2020" style="text;html=1;whiteSpace=wrap;overflow=hidden;rounded=0;fontStyle=1;fontSize=18;align=center;strokeWidth=0;" parent="1" vertex="1">
          <mxGeometry x="410" y="310" width="130" height="40" as="geometry" />
        </mxCell>
        <mxCell id="mvShpbLLlnh3-daPlj1M-1805" value="&lt;font style=&quot;font-size: 14px;&quot;&gt;&lt;font style=&quot;font-size: 14px;&quot;&gt;New Consumer Deal&lt;/font&gt;&lt;/font&gt;" style="text;html=1;align=center;verticalAlign=middle;whiteSpace=wrap;rounded=0;strokeWidth=0;fontStyle=0;fontSize=13;" parent="1" vertex="1">
          <mxGeometry x="400" y="330" width="300" height="60" as="geometry" />
        </mxCell>
        <mxCell id="mvShpbLLlnh3-daPlj1M-1806" value="Digital fairness â€“ fitness check on EU consumer law" style="rounded=1;whiteSpace=wrap;html=1;shadow=0;labelBackgroundColor=none;strokeWidth=0;fontFamily=Helvetica;fontSize=14;align=center;spacing=5;fontStyle=0;arcSize=7;perimeterSpacing=2;" parent="1" vertex="1">
          <mxGeometry x="260" y="240" width="130" height="60" as="geometry" />
        </mxCell>
        <mxCell id="mvShpbLLlnh3-daPlj1M-1807" value="2022" style="text;html=1;whiteSpace=wrap;overflow=hidden;rounded=0;fontStyle=1;fontSize=18;align=center;strokeWidth=0;" parent="1" vertex="1">
          <mxGeometry x="250" y="310" width="150" height="40" as="geometry" />
        </mxCell>
        <mxCell id="zFeIf6rGxBRQyr9y4doY-1756" value="&lt;div align=&quot;center&quot;&gt;&lt;font style=&quot;font-size: 16px;&quot;&gt;&lt;b&gt;Consumer Protection in the EU Timeline&lt;/b&gt;&lt;/font&gt;&lt;br&gt;&lt;/div&gt;" style="text;html=1;align=center;verticalAlign=middle;whiteSpace=wrap;rounded=0;strokeWidth=0;" vertex="1" parent="1">
          <mxGeometry x="230" y="384" width="790" height="60" as="geometry" />
        </mxCell>
      </root>
    </mxGraphModel>
  </diagram>
</mxfile>
